<svg height="565" width="430" xmlns="http://www.w3.org/2000/svg">
<!--File placed in the public domain by its author Schplurtz le Déboulonné-->
<path d="
M 95 30
v 20
h -35
a 40 40 0 0 0 -40 40
v 415
a 40 40 0 0 0 40 40
h 310
a 40 40 0 0 0 40 -40
v -415
a 40 40 0 0 0 -40 -40
h -75
a 40 40 0 0 1 -40 30
h -80
a 40 40 0 0 1 0 -80
h 80
a 40 40 10 0 1 40 30
h 75
a 60 60 0 0 1 60 60
v 415
a 60 60 0 0 1 -60 60
h -310
a 60 60 0 0 1 -60 -60
v -415
a 60 60 0 0 1 60 -60
z
M 255 60
a 20 20 0 0 0 0 -40
h -80
a 20 20 0 0 0 0 40
z
M 80 170 h 230 v 20 h -230 z
M 80 260 h 230 v 20 h -230 z
M 80 350 h 230 v 20 h -230 z
M 80 440 h 230 v 20 h -230 z
" />
</svg>
